<svg width="24" height="24" viewBox="0 0 24 24" fill="none" xmlns="http://www.w3.org/2000/svg">
<path d="M7.50195 0H10.0801V1.07812H8.58007V2.15625H10.0801V3.23438H7.50195V0Z" fill="#333333"/>
<path d="M10.5957 0H13.1739V0.9375H11.6739V1.125H13.1739V3.28125H10.5957V2.29688H12.0957V2.10938H10.5957V0Z" fill="#333333"/>
<path d="M13.6895 0H16.2676V0.9375H14.7676V1.125H16.2676V3.28125H13.6895V2.29688H15.1895V2.10938H13.6895V0Z" fill="#333333"/>
<path fill-rule="evenodd" clip-rule="evenodd" d="M11.9912 24L5.04739 22.0723L3 4.71655H21L18.9541 22.0696L11.9912 24ZM7.04736 12.5727L7.23814 14.7013H14.6153L14.3682 17.4619L11.9941 18.1027L11.992 18.1034L9.62135 17.4633L9.4698 15.7656H7.33301L7.63123 19.1079L11.9915 20.3183L16.3579 19.1078L16.8901 13.1443L16.9421 12.5727L17.3264 8.26428H6.66406L6.85756 10.3929H14.9936L14.7999 12.5727H7.04736Z" fill="#333333"/>
</svg>
