<svg width="32" height="32" viewBox="0 0 32 32" fill="none" xmlns="http://www.w3.org/2000/svg">
<g clip-path="url(#clip0_26_54)">
<path d="M18.036 0.130995C9.27096 -0.989005 1.25496 5.198 0.130965 13.964C-0.989035 22.729 5.19796 30.745 13.964 31.869C22.729 32.989 30.745 26.802 31.864 18.036C32.989 9.271 26.803 1.255 18.036 0.130995V0.130995ZM21.328 10.115C21.031 10.115 20.749 10.235 20.541 10.448L14.604 16.38L14.193 15.973L13.338 15.114C19.187 9.281 20.245 9.223 21.327 10.114L21.328 10.115ZM14.849 16.593L20.765 10.672C21.093 10.328 21.64 10.333 21.969 10.677C22.292 11.026 22.26 11.573 21.896 11.874L15.631 17.374L14.849 16.593ZM15.287 17.521L13.818 17.838C13.787 17.843 13.746 17.827 13.73 17.791C13.714 17.759 13.719 17.723 13.746 17.696L14.605 16.837L15.287 17.521ZM11.547 16.907L13.115 15.344L14.287 16.516L11.646 17.083C11.599 17.094 11.553 17.074 11.531 17.031C11.506 16.99 11.516 16.938 11.547 16.907ZM6.68796 24.984C6.63096 24.979 6.58796 24.927 6.59296 24.875C6.59796 24.85 6.60896 24.828 6.62496 24.812H6.62996L7.88996 23.552L9.52096 25.183L6.68796 24.984ZM9.92096 23.307C9.79696 23.375 9.73397 23.516 9.76497 23.651L10.036 24.803C10.079 24.97 9.87496 25.083 9.75496 24.959H9.74996L8.11496 23.323L13.131 18.312L15.558 17.787L16.719 18.954C15.047 20.422 12.76 21.886 9.92196 23.307H9.92096ZM16.959 18.74L15.839 17.62L22.104 12.12C22.161 12.068 22.213 12.011 22.26 11.953C22.068 13.745 19.557 16.276 16.959 18.74V18.74ZM21.839 10.125H21.834C19.651 7.932 22.735 4.562 25.11 6.541L22.965 8.693C22.902 8.754 22.902 8.85999 22.965 8.92099L24.626 10.584C23.694 11.047 22.574 10.86 21.839 10.125V10.125ZM25.271 10.125C25.162 10.234 25.042 10.333 24.912 10.416L23.303 8.807L25.344 6.76C26.229 7.724 26.193 9.203 25.271 10.125V10.125ZM25.14 8.068C25.073 8.115 25.047 8.197 25.068 8.276C25.167 8.473 25.14 8.708 25 8.875C24.932 8.959 24.948 9.074 25.031 9.14C25.063 9.161 25.099 9.177 25.14 9.177C25.197 9.177 25.251 9.156 25.281 9.114C25.516 8.833 25.562 8.437 25.401 8.109C25.338 8.026 25.224 8.005 25.14 8.068V8.068Z" fill="#333333"/>
</g>
<defs>
<clipPath id="clip0_26_54">
<rect width="32" height="32" fill="white"/>
</clipPath>
</defs>
</svg>
