<svg width="25" height="25" viewBox="0 0 25 25" fill="none" xmlns="http://www.w3.org/2000/svg">
<g clip-path="url(#clip0_26_62)">
<path d="M17.5403 17.2449C18.4333 17.1559 19.1253 16.4079 19.1253 15.4989C19.1253 15.4629 19.1243 15.4269 19.1223 15.3909V15.3959C19.0753 14.4329 18.2883 13.6699 17.3213 13.6599H17.2563C16.2883 13.6959 15.5173 14.4889 15.5173 15.4619C15.5173 15.4839 15.5173 15.5059 15.5183 15.5289V15.5259C15.5443 15.9989 15.7383 16.4229 16.0403 16.7429L16.0393 16.7419C14.8523 18.9559 13.0383 20.7019 10.8353 21.7729L10.7663 21.8029C9.57431 22.4629 8.15231 22.8509 6.63931 22.8509C6.25631 22.8509 5.87831 22.8259 5.50931 22.7779L5.55331 22.7829C4.19231 22.6519 3.02031 21.9389 2.27631 20.8989L2.26731 20.8849C1.73031 20.1299 1.40931 19.1899 1.40931 18.1739C1.40931 17.3369 1.62731 16.5509 2.01031 15.8689L1.99831 15.8929C2.54531 14.8569 3.29131 13.9949 4.19231 13.3309L4.21331 13.3169C4.04231 12.8639 3.88931 12.3179 3.78131 11.7569L3.77031 11.6909C-0.912686 15.0399 -0.437686 19.6209 0.984314 21.7859C2.22731 23.3719 4.14331 24.3819 6.29531 24.3819C6.39331 24.3819 6.49031 24.3799 6.58731 24.3759H6.57331C6.60831 24.3769 6.65031 24.3769 6.69231 24.3769C7.33931 24.3769 7.96831 24.3019 8.57231 24.1609L8.51631 24.1719C12.5243 23.4379 15.8063 20.8549 17.4903 17.3579L17.5223 17.2839L17.5403 17.2449Z" fill="#333333"/>
<path d="M23.1802 13.299C20.7772 10.559 17.2702 8.83904 13.3602 8.83904C13.2412 8.83904 13.1212 8.84104 13.0032 8.84404H13.0212H12.4832C12.2002 8.27704 11.6232 7.89404 10.9572 7.89404C10.9372 7.89404 10.9182 7.89404 10.8982 7.89504H10.9012H10.8622C9.89616 7.90904 9.11816 8.69504 9.11816 9.66304C9.11816 9.69204 9.11916 9.72004 9.12016 9.74804V9.74404C9.16516 10.707 9.95216 11.472 10.9202 11.482H10.9992C11.7132 11.454 12.3162 11.01 12.5762 10.388L12.5802 10.376H13.1652C15.7192 10.379 18.0892 11.163 20.0492 12.504L20.0072 12.477C21.5382 13.457 22.7202 14.865 23.3992 16.532L23.4202 16.59C23.6802 17.132 23.8312 17.768 23.8312 18.439C23.8312 19.149 23.6622 19.819 23.3612 20.411L23.3722 20.386C22.5952 21.972 20.9932 23.044 19.1412 23.044C19.0732 23.044 19.0062 23.043 18.9392 23.04H18.9492C17.8122 23.016 16.7392 22.766 15.7662 22.333L15.8182 22.354C15.4392 22.67 14.8072 23.19 14.3482 23.507C15.5622 24.103 16.9862 24.466 18.4912 24.501H18.5032C18.5622 24.503 18.6312 24.504 18.7002 24.504C21.2522 24.504 23.4872 23.149 24.7262 21.12L24.7442 21.089C25.0862 20.278 25.2842 19.336 25.2842 18.347C25.2842 16.367 24.4882 14.573 23.1992 13.268L23.2002 13.269L23.1852 13.301L23.1802 13.299Z" fill="#333333"/>
<path d="M6.8441 17.816C6.8881 18.78 7.6771 19.547 8.6471 19.554H8.7111C9.6791 19.521 10.4521 18.727 10.4521 17.754C10.4521 16.764 9.6531 15.96 8.6641 15.953H8.5971C8.5871 15.952 8.5751 15.952 8.5641 15.952C8.4911 15.952 8.4211 15.963 8.3551 15.985L8.3601 15.984C7.2901 14.243 6.6571 12.134 6.6571 9.877C6.6571 9.513 6.6731 9.153 6.7061 8.798L6.7031 8.844C6.7941 6.938 7.4941 5.211 8.6101 3.837L8.5981 3.853C9.5891 2.782 10.9851 2.1 12.5421 2.05H12.5511C15.9631 1.986 17.3861 6.238 17.4961 7.928L19.0781 8.401C18.7101 3.22 15.4881 0.5 12.4071 0.5C9.2751 0.663 6.6761 2.77 5.7851 5.631L5.7711 5.683C5.3331 6.945 5.0791 8.399 5.0791 9.912C5.0791 12.5 5.8201 14.915 7.1001 16.956L7.0681 16.901C6.9251 17.117 6.8401 17.382 6.8401 17.667C6.8401 17.72 6.8431 17.772 6.8491 17.823L6.8481 17.817L6.8441 17.816Z" fill="#333333"/>
</g>
<defs>
<clipPath id="clip0_26_62">
<rect width="25" height="25" fill="white"/>
</clipPath>
</defs>
</svg>
