<svg width="24" height="24" viewBox="0 0 24 24" fill="none" xmlns="http://www.w3.org/2000/svg">
<path d="M0 2.475V12.865L3 14.598V7.67L9 11.135L15 7.67V11.135L9 14.598V18.062L15 21.525L24 16.33V9.402L21 11.135V14.598L15 18.062L12 16.33L18 12.865V2.475L9 7.67L0 2.475ZM24 2.475L21 4.205V7.67L24 5.938V2.474V2.475Z" fill="#333333"/>
<path d="M0 2.475V12.865L3 14.598V7.67L9 11.135L15 7.67V11.135L9 14.598V18.062L15 21.525L24 16.33V9.402L21 11.135V14.598L15 18.062L12 16.33L18 12.865V2.475L9 7.67L0 2.475ZM24 2.475L21 4.205V7.67L24 5.938V2.474V2.475Z" fill="#333333"/>
</svg>
