<svg width="15" height="15" viewBox="0 0 15 15" fill="none" xmlns="http://www.w3.org/2000/svg">
<g clip-path="url(#clip0_26_56)">
<path d="M14.5 7.58398C14.5 9.24083 11.366 10.584 7.5 10.584C3.63401 10.584 0.5 9.24083 0.5 7.58398C0.5 5.92712 3.63401 4.58398 7.5 4.58398C11.366 4.58398 14.5 5.92712 14.5 7.58398Z" stroke="#333333"/>
<path d="M4.16555 13.7388C5.6224 14.528 8.29611 12.412 10.1375 9.01265C11.9788 5.61333 12.2905 2.21791 10.8337 1.42876C9.37678 0.639612 6.70307 2.75558 4.86173 6.1549C3.02039 9.55422 2.7087 12.9497 4.16555 13.7388Z" stroke="#333333"/>
<path d="M10.8336 13.7388C9.37678 14.528 6.70307 12.412 4.86173 9.01265C3.02039 5.61333 2.7087 2.21791 4.16555 1.42876C5.6224 0.639612 8.29611 2.75558 10.1374 6.1549C11.9788 9.55422 12.2904 12.9497 10.8336 13.7388Z" stroke="#333333"/>
<path d="M6.5 7.58398C6.5 8.13626 6.94772 8.58398 7.5 8.58398C8.05228 8.58398 8.5 8.13626 8.5 7.58398C8.5 7.03169 8.05228 6.58398 7.5 6.58398C6.94772 6.58398 6.5 7.03169 6.5 7.58398Z" stroke="#333333"/>
</g>
<defs>
<clipPath id="clip0_26_56">
<rect width="15" height="15" fill="white"/>
</clipPath>
</defs>
</svg>
