<!-- icon666.com - MILLIONS vector ICONS FREE --><svg viewBox="-44 0 512 512" xmlns="http://www.w3.org/2000/svg"><path d="m411.300781 99.113281-85.605469-85.605469c-8.714843-8.710937-20.296874-13.507812-32.617187-13.507812h-246.957031c-25.429688 0-46.121094 20.691406-46.121094 46.125v419.753906c0 25.429688 20.691406 46.121094 46.121094 46.121094h332.5625c25.433594 0 46.125-20.691406 46.125-46.125v-191.351562c0-4.199219-3.402344-7.601563-7.605469-7.601563-4.199219 0-7.601563 3.402344-7.601563 7.601563v191.351562c0 17.046875-13.871093 30.917969-30.917968 30.917969h-332.5625c-17.042969 0-30.914063-13.871094-30.914063-30.917969v-419.75c0-17.046875 13.871094-30.917969 30.914063-30.917969h220.757812c19.050782 0 34.550782 15.5 34.550782 34.554688v27.492187c0 25.433594 20.691406 46.121094 46.125 46.121094h27.492187c19.050781 0 34.550781 15.5 34.550781 34.554688v86.175781c0 4.203125 3.40625 7.605469 7.605469 7.605469s7.605469-3.402344 7.605469-7.605469v-112.378907c0-12.320312-4.796875-23.902343-13.507813-32.613281zm-36.253906 9.054688h-27.492187c-17.046876 0-30.914063-13.867188-30.914063-30.914063v-27.492187c0-12.324219-4.515625-23.605469-11.960937-32.308594 3.792968 1.535156 7.28125 3.828125 10.261718 6.808594l85.605469 85.605469c2.980469 2.980468 5.273437 6.464843 6.808594 10.261718-8.703125-7.449218-19.984375-11.960937-32.308594-11.960937zm0 0"></path><path d="m92.679688 193.945312c6.410156 6.414063 14.9375 9.949219 24.007812 9.949219 9.074219 0 17.597656-3.535156 24.011719-9.949219 2.972656-2.96875 2.972656-7.78125 0-10.75-2.96875-2.972656-7.78125-2.972656-10.753907 0-7.308593 7.308594-19.203124 7.308594-26.511718 0-2.96875-2.972656-7.785156-2.972656-10.753906 0-2.972657 2.96875-2.972657 7.78125 0 10.75zm0 0"></path><path d="m191.984375 273.808594c0-19.535156-7.414063-37.929688-20.882813-52.011719 13.011719-13.640625 20.882813-32.066406 20.882813-52.015625v-46.097656c0-20.109375-7.832031-39.019532-22.054687-53.246094-10.699219-10.699219-24.167969-17.855469-38.945313-20.695312-4.675781-.902344-9.484375-1.359376-14.296875-1.359376-41.519531 0-75.296875 33.777344-75.296875 75.300782v46.097656c0 20.140625 7.96875 38.449219 20.894531 51.972656-13.367187 13.949219-20.894531 32.5-20.894531 52.054688 0 4.203125 3.402344 7.605468 7.605469 7.605468h135.382812c4.199219 0 7.605469-3.40625 7.605469-7.605468zm-75.296875-210.21875c3.847656 0 7.691406.363281 11.425781 1.085937 11.78125 2.261719 22.523438 7.972657 31.066407 16.511719 11.347656 11.355469 17.597656 26.445312 17.597656 42.492188v2.273437c-68.953125-2.007813-93.066406-29.707031-93.273438-29.953125-2.027344-2.496094-5.410156-3.445312-8.445312-2.367188-3.03125 1.074219-5.058594 3.945313-5.058594 7.164063 0 6.875-5.59375 14.964844-13.335938 20.5 1.253907-32.03125 27.691407-57.707031 60.023438-57.707031zm-60.085938 75.234375c10.445313-4.828125 20.382813-13.652344 25.332032-24.144531 13.867187 10.078124 43.035156 25.070312 94.84375 26.480468v28.621094c0 28.765625-20.46875 53.578125-48.671875 59-3.730469.71875-7.570313 1.085938-11.417969 1.085938-33.132812 0-60.085938-26.957032-60.085938-60.089844zm.476563 127.382812c1.652344-13.039062 7.53125-25.148437 16.792969-34.542969 12.164062 8.445313 26.917968 13.410157 42.816406 13.410157 4.8125 0 9.621094-.457031 14.292969-1.355469 10.519531-2.023438 20.171875-6.210938 28.550781-12.027344 9.328125 9.488282 15.140625 21.519532 16.769531 34.515625zm0 0"></path><path d="m87.199219 172.855469c4.203125 0 7.605469-3.402344 7.605469-7.601563v-16.640625c0-4.199219-3.402344-7.605469-7.605469-7.605469-4.199219 0-7.601563 3.40625-7.601563 7.605469v16.640625c0 4.199219 3.402344 7.601563 7.601563 7.601563zm0 0"></path><path d="m146.179688 172.855469c4.203124 0 7.605468-3.402344 7.605468-7.601563v-16.640625c0-4.199219-3.402344-7.605469-7.605468-7.605469-4.199219 0-7.601563 3.40625-7.601563 7.605469v16.640625c0 4.199219 3.402344 7.601563 7.601563 7.601563zm0 0"></path><path d="m68.4375 387.566406c-4.203125 0-7.605469 3.40625-7.605469 7.605469v68.667969c0 4.199218 3.402344 7.605468 7.605469 7.605468h75.023438c4.199218 0 7.605468-3.40625 7.605468-7.605468v-68.667969c0-4.199219-3.40625-7.605469-7.605468-7.605469zm67.421875 68.667969h-59.820313v-53.460937h59.820313zm0 0"></path><path d="m174.890625 471.445312h75.027344c4.199219 0 7.601562-3.40625 7.601562-7.605468v-160.929688c0-4.199218-3.402343-7.605468-7.601562-7.605468h-75.027344c-4.199219 0-7.601563 3.40625-7.601563 7.605468v95.304688c0 4.199218 3.402344 7.601562 7.601563 7.601562s7.605469-3.402344 7.605469-7.601562v-87.703125h59.816406v145.722656h-59.816406v-27.601563c0-4.199218-3.40625-7.605468-7.605469-7.605468s-7.601563 3.40625-7.601563 7.605468v35.207032c0 4.199218 3.402344 7.605468 7.601563 7.605468zm0 0"></path><path d="m281.347656 471.445312h75.023438c4.203125 0 7.605468-3.40625 7.605468-7.605468v-125.445313c0-4.199219-3.402343-7.601562-7.605468-7.601562h-75.023438c-4.203125 0-7.605468 3.402343-7.605468 7.601562v125.445313c0 4.199218 3.402343 7.605468 7.605468 7.605468zm7.601563-125.445312h59.820312v110.234375h-59.820312zm0 0"></path><path d="m302.140625 253.53125c0-4.199219-3.402344-7.605469-7.605469-7.605469h-68.941406c-4.199219 0-7.601562 3.40625-7.601562 7.605469s3.402343 7.601562 7.601562 7.601562h68.941406c4.199219 0 7.605469-3.402343 7.605469-7.601562zm0 0"></path><path d="m376.152344 214.902344c0-4.199219-3.402344-7.601563-7.605469-7.601563h-142.953125c-4.199219 0-7.601562 3.402344-7.601562 7.601563 0 4.203125 3.402343 7.605468 7.601562 7.605468h142.953125c4.203125 0 7.605469-3.402343 7.605469-7.605468zm0 0"></path><path d="m225.59375 183.882812h122.230469c4.199219 0 7.601562-3.40625 7.601562-7.605468 0-4.199219-3.402343-7.601563-7.601562-7.601563h-122.230469c-4.199219 0-7.601562 3.402344-7.601562 7.601563 0 4.199218 3.402343 7.605468 7.601562 7.605468zm0 0"></path><path d="m225.59375 145.253906h61.398438c4.203124 0 7.605468-3.402344 7.605468-7.601562 0-4.199219-3.402344-7.605469-7.605468-7.605469h-61.398438c-4.199219 0-7.601562 3.40625-7.601562 7.605469 0 4.199218 3.402343 7.601562 7.601562 7.601562zm0 0"></path></svg>