<svg width="512" height="512" viewBox="0 0 512 512" fill="none" xmlns="http://www.w3.org/2000/svg">
<path d="M412.4 269.4C418.4 260.4 421.8 249.7 421.8 238.2V187.4C421.8 161.8 401 141 375.4 141H327.8C302.2 141 281.4 161.8 281.4 187.4V238.2C281.4 249.7 284.9 260.5 290.8 269.4C277.2 276.1 265.6 286.1 257.1 298.4C257.7 294.9 258 291.3 258 287.7V228.5C258 199.3 234.3 175.6 205.1 175.6H149.6C120.4 175.6 96.7 199.3 96.7 228.5V287.7C96.7 301.4 101 314.1 108.3 324.6C73.4 341.1 50.5 376.7 50.5 415.9V469.9L118.2 493L118.9 493.1C138.3 495.4 157.9 496.5 177.4 496.5C196.9 496.5 216.5 495.4 235.9 493.1L236.6 493L304.3 469.9V415.9V415.8C320 417.5 335.8 418.4 351.6 418.4C368.4 418.4 385.2 417.4 401.9 415.5L402.6 415.4L461.4 395.3V348.2C461.5 314.5 442.1 284 412.4 269.4ZM295.4 187.4C295.4 169.5 309.9 155 327.8 155H375.4C393.3 155 407.8 169.5 407.8 187.4V212.9C393.6 208.3 380.5 191.3 377.9 184.9L375 177.7L371.5 184.6C371.3 184.9 355.6 214.5 295.4 205.9V187.4ZM295.4 213C303 214 310 214.5 316.4 214.5C351.2 214.5 367.7 200.6 374.3 192.8C380.2 202.3 393.2 216.5 407.9 220.2V238.2C407.9 252.1 401.2 264.5 390.8 272.3L390.4 272.6C390 272.9 389.6 273.1 389.3 273.4L388.7 273.7L388.6 273.8C387.1 274.8 385.5 275.7 383.8 276.5L383.6 276.6C383.5 276.7 383.3 276.7 383.2 276.8C382.7 277 382.3 277.2 381.8 277.4C381.7 277.4 381.7 277.5 381.6 277.5C380.6 277.9 379.5 278.3 378.4 278.7C378.3 278.7 378.3 278.8 378.2 278.8L377.9 278.9C377.8 278.9 377.8 278.9 377.7 279C377.4 279.1 377.2 279.1 376.9 279.2L376.5 279.3H376.4C376.2 279.3 376.1 279.4 375.9 279.4C375.8 279.4 375.7 279.4 375.6 279.5L375 279.6H374.9C374.6 279.7 374.2 279.8 373.9 279.8C373.8 279.8 373.7 279.8 373.6 279.9H373.4C370.7 280.5 367.8 280.8 364.9 280.8H338C336.8 280.8 335.6 280.7 334.4 280.6C333.7 280.5 333.1 280.5 332.5 280.4C331.5 280.3 330.5 280.1 329.5 279.9H329.3C329.2 279.9 329.2 279.9 329.1 279.9C328.7 279.8 328.3 279.7 327.9 279.6L327.4 279.5C327.2 279.5 327 279.4 326.8 279.4C324.9 278.9 323.1 278.3 321.4 277.5C321.3 277.5 321.3 277.5 321.2 277.4C320.6 277.1 320 276.9 319.4 276.6C319.4 276.6 319.3 276.6 319.3 276.5C305.1 269.6 295.2 255 295.2 238.2V213H295.4ZM364.6 302.8L362.2 296L361.8 294.8H365.2C369.3 294.8 373.3 294.4 377.1 293.5C377.6 293.4 378.1 293.3 378.5 293.2C378.9 293.1 379.2 293 379.6 292.9C379.9 292.8 380.3 292.7 380.7 292.6H380.8C381.4 292.4 382 292.3 382.6 292.1C382.6 292.1 382.6 292.1 382.7 292.1C382.8 292.1 382.8 292.1 382.9 292C382.1 293.9 381.2 295.8 380.2 297.7C377.3 298.7 370 301.2 364.6 302.8ZM374.8 306.9C371.9 311.5 368.5 315.9 364.8 319.7L362.5 311.9C363.3 311.2 363.9 310.6 364.4 310.1C367.4 309.3 371.3 308.1 374.8 306.9ZM364.1 329.7C364.2 329.7 364.2 329.7 364.1 329.7C364.6 329.3 364.9 329 365.3 328.7L367.1 327.2V327.1C373.1 321.6 378.4 314.6 382.7 307.4L394.7 323.2C391.1 327.8 379.6 339.9 355.2 347.7V335.3C355.3 335.2 355.4 335.2 355.6 335.1C355.9 335 356.2 334.8 356.5 334.6C356.8 334.5 357.1 334.3 357.3 334.2C357.6 334 357.9 333.8 358.3 333.7C358.6 333.6 358.8 333.4 359.1 333.3C359.5 333.1 359.9 332.8 360.3 332.5C360.5 332.4 360.6 332.3 360.8 332.2C361.8 331.5 363 330.6 364.1 329.7ZM383.8 305.6C387.2 299.6 390 293.5 392 288.1C392.3 288 392.5 287.8 392.7 287.7C393.2 287.4 393.7 287.1 394.2 286.8C394.4 286.7 394.6 286.5 394.8 286.4C395.5 286 396.1 285.6 396.7 285.2C396.8 285.1 397 285 397.1 284.9C397.8 284.5 398.4 284 399 283.5C399.1 283.4 399.2 283.3 399.3 283.2C399.7 282.9 400.2 282.5 400.7 282.1C402.7 289 405.2 298.7 405.9 306.5L383.8 305.6ZM358.4 306.2C357.9 306.6 357.4 307.1 356.6 307.5C356.2 307.7 355.8 307.9 355.4 308.1C355.3 308.2 355.2 308.2 355 308.2C354.7 308.3 354.4 308.4 354.2 308.5C354 308.5 353.9 308.6 353.7 308.6C353.4 308.7 353.2 308.7 352.9 308.8C352.7 308.8 352.6 308.8 352.4 308.8C352.1 308.8 351.9 308.8 351.6 308.9C351.4 308.9 351.3 308.9 351.1 308.9C350.8 308.9 350.6 308.9 350.3 308.8C350.1 308.8 350 308.8 349.8 308.7C349.5 308.7 349.3 308.6 349 308.5C348.8 308.5 348.7 308.4 348.5 308.4C348.2 308.3 348 308.2 347.7 308.1C347.5 308 347.4 308 347.2 307.9C347 307.8 346.7 307.7 346.5 307.5L346.2 307.4C345.5 307 344.9 306.5 344.4 306.1L348.4 294.8H354.1L355.1 297.5L358.4 306.2ZM338.5 302.8C333.2 301.3 326 298.8 323.1 297.7C322.1 295.8 321.2 293.9 320.4 292H320.5C321.1 292.2 321.8 292.4 322.6 292.6C322.8 292.7 323 292.7 323.1 292.7C323.6 292.8 324 292.9 324.5 293.1C325 293.2 325.5 293.4 326.1 293.5C328.1 293.9 330.1 294.3 332.2 294.5C334.1 294.7 336 294.8 337.9 294.8H341.2L338.5 302.8ZM340.7 311.9L338.4 319.7C334.7 315.9 331.4 311.5 328.4 307C331.9 308.2 335.8 309.4 338.8 310.1C339.3 310.6 339.9 311.2 340.7 311.9ZM319.5 305.6L297.4 306.7C298.1 298.9 300.6 289.2 302.6 282.3C303 282.6 303.4 283 303.9 283.3C304.1 283.5 304.4 283.7 304.6 283.9C305.2 284.3 305.7 284.7 306.2 285C306.4 285.2 306.6 285.3 306.8 285.4C307.3 285.8 307.9 286.1 308.5 286.5C308.7 286.6 308.9 286.8 309.2 286.9C309.7 287.2 310.2 287.5 310.7 287.7C310.9 287.8 311.1 287.9 311.4 288.1C313 292.4 315 297.1 317.5 301.8C317.6 302 317.7 302.2 317.8 302.4C318.3 303.4 318.9 304.5 319.5 305.6ZM110.7 228.5C110.7 207 128.2 189.6 149.6 189.6H205.1C226.6 189.6 244 207.1 244 228.5V250.5C207.7 255.8 185.4 249.3 172.8 242.5C158.6 234.9 153.6 225.5 153.5 225.4L150 218.5L147.1 225.7C143.6 234.5 127.6 254.5 110.5 259.1V228.5H110.7ZM110.7 266.4C128.5 262.5 144.2 245 150.9 233.8C154.1 237.8 159.9 243.4 169 248.4C182.4 255.7 206.1 263 244 257.6V287.7C244 314.8 222.6 337.1 195.8 338.5C194.9 338.5 194.1 338.6 193.2 338.6H161.5C160.6 338.6 159.8 338.6 158.9 338.5C132.1 337.1 110.7 314.9 110.7 287.7V266.4V266.4ZM192.2 363.7L188.5 353.3L188.3 352.6H193.3C193.4 352.6 193.6 352.6 193.7 352.6C194.6 352.6 195.6 352.6 196.5 352.5C196.8 352.5 197 352.5 197.3 352.4C198.1 352.3 199 352.3 199.8 352.2C200 352.2 200.1 352.2 200.3 352.1C201.3 352 202.2 351.9 203.2 351.7C207.3 351.1 211.3 350.1 215.1 348.7C213.9 351.5 212.5 354.5 211 357.4C207.8 358.7 198.7 361.9 192.2 363.7ZM205.8 366.7C202 372.9 197.5 378.8 192.5 383.7L189.4 373.3C190.5 372.4 191.3 371.6 191.9 370.9C195.9 370 201.3 368.3 205.8 366.7ZM189.6 395.5C189.7 395.4 189.9 395.3 190 395.2C190.5 394.8 191 394.4 191.5 394C191.7 393.9 191.9 393.7 192.1 393.6C192.4 393.3 192.7 393.1 193 392.8L194.8 391.3V391.2C202.1 384.6 208.4 376.1 213.6 367.4L228.4 386.8C224.4 392 210.8 406.9 181 416.1V400.5C181.3 400.4 181.5 400.2 181.8 400.1C182.1 399.9 182.5 399.8 182.8 399.6C183.1 399.4 183.5 399.2 183.8 399.1C184.1 398.9 184.5 398.7 184.8 398.5C185.1 398.3 185.4 398.1 185.8 397.9C186.2 397.7 186.6 397.4 187 397.2C187.3 397 187.5 396.9 187.8 396.7C188.3 396.4 188.9 396 189.6 395.5ZM224.2 344.7C227.9 342.7 231.4 340.3 234.7 337.5C237.1 345.8 240.4 358.4 241.2 368.2L213.8 366.8C218.3 359.3 221.8 351.5 224.2 344.7ZM186 367.1C185.4 367.7 184.6 368.4 183.6 369C181.7 370.1 179.6 370.7 177.5 370.7C177 370.7 176.5 370.7 176 370.6C175.8 370.6 175.7 370.5 175.5 370.5C175.2 370.4 174.8 370.4 174.5 370.3C174.3 370.2 174.1 370.2 173.9 370.1C173.6 370 173.3 369.9 173 369.8C172.8 369.7 172.6 369.6 172.4 369.5C172.1 369.4 171.8 369.2 171.6 369.1L171.3 368.9C170.3 368.3 169.4 367.6 168.8 367L173.9 352.4H180.9L181.9 355.3L186 367.1ZM162.5 363.7C156.1 361.9 147.2 358.8 143.8 357.6C142.3 354.6 140.9 351.7 139.7 348.8C143.6 350.2 147.6 351.2 151.7 351.8C152.7 351.9 153.6 352.1 154.6 352.2C154.8 352.2 154.9 352.2 155.1 352.3C155.9 352.4 156.8 352.4 157.6 352.5C157.9 352.5 158.1 352.5 158.4 352.6C159.3 352.6 160.3 352.7 161.2 352.7C161.3 352.7 161.5 352.7 161.6 352.7H166.5L162.5 363.7ZM165.4 373.4L162.3 383.8C157.3 378.8 152.9 372.9 149 366.8C153.5 368.3 158.8 370 162.7 371C163.4 371.7 164.3 372.5 165.4 373.4ZM140.9 366.8L113.5 368.2C114.3 358.4 117.6 345.8 120 337.5C123.3 340.3 126.8 342.6 130.5 344.7C132.4 350 134.9 355.8 137.9 361.6C138 361.8 138.1 362 138.2 362.2C139.1 363.8 140 365.3 140.9 366.8ZM173.9 482.5C156.3 482.4 138.7 481.3 121.2 479.3L64.4 459.9V415.9C64.4 382.8 83.4 352.6 112.5 338.1C109.7 347.9 106.3 361.8 106.2 371.9V375.6L127.1 374.5L117.9 386.6L119.1 388.6C119.7 389.5 133 411.5 173.8 423.5V482.5H173.9ZM173.9 416.3C144.1 407.1 130.5 392.2 126.5 387L141.3 367.6C146.4 376.3 152.8 384.8 160.1 391.4V391.5L161.9 393C162.3 393.3 162.7 393.6 163 393.9C163.1 394 163.1 394 163.2 394.1C164.5 395.2 165.9 396.2 167.2 397.1C167.3 397.2 167.4 397.2 167.5 397.3C168 397.7 168.6 398 169.1 398.3C169.4 398.5 169.6 398.6 169.9 398.8C170.3 399 170.7 399.3 171.1 399.5C171.4 399.7 171.7 399.8 172 400C172.4 400.2 172.8 400.4 173.2 400.6C173.4 400.7 173.7 400.8 173.9 400.9V416.3ZM179.7 393.5C179 393.9 178.2 394.3 177.4 394.6C176.7 394.3 175.9 393.9 175.2 393.5C175 393.4 174.9 393.3 174.7 393.2C174.1 392.9 173.6 392.6 173 392.2C172.8 392.1 172.6 391.9 172.3 391.8C171.8 391.5 171.3 391.2 170.8 390.8C170.6 390.6 170.3 390.5 170.1 390.3C169.6 390 169.1 389.6 168.6 389.2C168.4 389.1 168.2 388.9 168.1 388.8L171.7 376.7C171.8 376.7 171.9 376.8 172 376.8C172.3 376.9 172.6 377 172.8 377C173 377 173.1 377.1 173.3 377.1C173.6 377.2 173.9 377.2 174.2 377.3C174.3 377.3 174.5 377.3 174.6 377.4C175 377.5 175.4 377.5 175.7 377.5C175.8 377.5 175.9 377.5 175.9 377.5C176.4 377.5 176.8 377.6 177.3 377.6C177.8 377.6 178.3 377.6 178.7 377.5C178.8 377.5 178.8 377.5 178.9 377.5C179.3 377.5 179.7 377.4 180.1 377.4C180.2 377.4 180.3 377.4 180.4 377.3C180.7 377.2 181.1 377.2 181.4 377.1C181.6 377.1 181.7 377 181.9 377C182.2 376.9 182.5 376.8 182.8 376.8C182.9 376.8 183 376.8 183.1 376.7L186.7 388.8C186.6 388.9 186.5 388.9 186.4 389C185.8 389.5 185.2 389.9 184.6 390.3C184.4 390.4 184.2 390.6 184.1 390.7C183.5 391.1 183 391.4 182.4 391.8C182.2 391.9 182 392 181.9 392.1C181.3 392.5 180.7 392.8 180.1 393.1C179.9 393.4 179.8 393.4 179.7 393.5ZM290.4 459.9L233.6 479.3C216.1 481.3 198.5 482.4 180.9 482.5V423.6C221.7 411.6 235.1 389.6 235.6 388.7L236.8 386.7L227.6 374.6L248.5 375.7V372C248.4 361.9 245 347.9 242.2 338.2C243.2 338.7 244.2 339.2 245.2 339.8L246.4 340.5C248.7 341.8 250.9 343.2 253 344.7C253 344.7 253.1 344.7 253.1 344.8C253.7 345.2 254.2 345.6 254.7 346C255 346.2 255.3 346.4 255.5 346.6C255.9 346.9 256.3 347.2 256.7 347.5C257.2 347.9 257.6 348.2 258.1 348.6C258.3 348.8 258.6 349 258.8 349.2C274.9 362.7 285.8 381.7 289.1 402.8C289.1 403.1 289.2 403.4 289.2 403.8C289.3 404.4 289.4 404.9 289.4 405.5C289.5 406.1 289.5 406.7 289.6 407.3C289.9 410.2 290.1 413.1 290.1 416.1V459.9H290.4ZM348.1 404.3C333.2 404.2 318.4 403.3 303.6 401.6L303.3 401.5C303.3 401.2 303.2 400.9 303.2 400.6C303.2 400.4 303.1 400.2 303.1 400C299.3 375.9 286.7 354 268.1 338.4C268 338.3 267.9 338.2 267.7 338.1C266.9 337.5 266.1 336.8 265.3 336.2C265.1 336 264.9 335.9 264.7 335.7C263.9 335.1 263 334.4 262.2 333.8C261.7 333.5 261.3 333.1 260.8 332.8C260.4 332.5 260 332.3 259.6 332C259 331.6 258.4 331.2 257.8 330.8C257.8 330.8 257.8 330.8 257.7 330.8C262.6 310.2 276.3 292.8 295 283C292.7 291.3 290.2 302.2 290.1 310.4V314.1L307.5 313.2L300 323L301.2 325C301.7 325.8 313.2 344.7 348.1 355.1V404.3V404.3ZM348.1 347.8C323.6 340.1 312.2 327.9 308.6 323.3L320.6 307.5C324.9 314.7 330.1 321.7 336.2 327.2V327.3L338 328.8C339.6 330.1 341.1 331.3 342.7 332.3C342.8 332.3 342.8 332.4 342.9 332.4C343.4 332.7 343.9 333 344.4 333.3C344.6 333.4 344.8 333.6 345 333.7C345.4 333.9 345.7 334.1 346.1 334.3C346.4 334.4 346.6 334.6 346.9 334.7C347.2 334.9 347.6 335 347.9 335.2C348 335.3 348.1 335.3 348.2 335.4V347.8H348.1ZM349.8 328.4C349.8 328.4 349.7 328.4 349.8 328.4C349.1 328 348.6 327.7 348 327.4C347.9 327.3 347.8 327.3 347.7 327.2C347.2 326.9 346.7 326.6 346.2 326.3C346.1 326.2 345.9 326.1 345.8 326C345.4 325.7 344.9 325.4 344.5 325C344.4 324.9 344.3 324.9 344.2 324.8L347 315.2C347 315.2 347 315.2 347.1 315.2C347.3 315.3 347.6 315.3 347.8 315.4C347.9 315.4 348 315.5 348.1 315.5C349.2 315.7 350.4 315.9 351.5 315.9C352.7 315.9 353.8 315.8 354.9 315.5C355 315.5 355.2 315.4 355.3 315.4C355.5 315.3 355.8 315.3 356 315.2C356 315.2 356 315.2 356.1 315.2L358.9 324.8L358.8 324.9C358.3 325.3 357.8 325.7 357.3 326C357.2 326.1 357.1 326.1 357 326.2C356.5 326.6 355.9 326.9 355.4 327.2C355.3 327.2 355.3 327.3 355.2 327.3C354 328 352.8 328.7 351.5 329.2C351 329 350.4 328.7 349.8 328.4ZM447.5 385.2L399.6 401.6C384.8 403.3 370 404.2 355.1 404.3V355.1C390 344.7 401.5 325.9 402 325L403.2 323L395.7 313.2L413.1 314.1V310.4C413 302.2 410.5 291.3 408.2 283C432.1 295.6 447.5 320.6 447.5 348.1V385.2Z" fill="#333333"/>
<path d="M150.4 149.8C156.4 152.4 162.7 153.8 169.3 153.8H170C170 154.3 169.9 154.8 169.7 155.3C169.1 157.1 167.9 158.5 166.3 159.3L140.6 172.5H169.5C187.9 172.5 205.4 165.9 219.1 153.7H232.7C250.4 153.7 266.4 143.7 274.5 128.5C286 135.3 299.1 138.9 312.7 138.9H341.6L316 125.7C314.4 124.9 313.1 123.4 312.6 121.7C312.4 121.2 312.3 120.7 312.3 120.2H313C319.6 120.2 326 118.9 331.9 116.2C349.1 108.7 360.2 91.7 360.2 73V62.7C360.2 36.7 339 15.5 313 15.5H249.5C228.3 15.5 210.2 29.3 204.3 49.1H169.3C143.3 49.1 122.1 70.3 122.1 96.3V106.7C122.2 125.4 133.3 142.3 150.4 149.8ZM249.5 29.5H313C331.3 29.5 346.2 44.4 346.2 62.7V73C346.2 86.2 338.4 98.1 326.3 103.4C322.1 105.2 317.7 106.2 313 106.2H302.5L300.5 110C298.4 114.2 297.7 118.8 298.5 123.3C291.7 121.7 285.2 118.9 279.2 114.9V114.8C279.3 114.2 279.4 113.6 279.5 113C279.5 112.8 279.6 112.6 279.6 112.4C279.7 112 279.7 111.5 279.7 111.1C279.7 110.9 279.7 110.7 279.8 110.4C279.8 110 279.9 109.5 279.9 109.1C279.9 108.9 279.9 108.7 279.9 108.5C279.9 107.9 279.9 107.2 279.9 106.6V96.2C279.9 70.2 258.7 49 232.7 49H219.1C224.5 37.3 236.1 29.5 249.5 29.5ZM136.2 96.2C136.2 77.9 151.1 63 169.4 63H201.7H232.9C251.2 63 266.1 77.9 266.1 96.2V106.6C266.1 109.8 265.6 112.9 264.8 115.9C260.7 129.9 247.6 139.7 233 139.7H213.8L211.8 141.6C203.9 149.1 194.3 154.3 183.9 156.8C184.7 152.3 184 147.7 181.9 143.5L179.9 139.7H169.4C164.8 139.7 160.3 138.8 156.1 136.9C144 131.6 136.2 119.7 136.2 106.5V96.2V96.2Z" fill="#333333"/>
<path d="M307.3 74.2C310.3 74.2 312.7 71.8 312.7 68.8C312.7 65.8 310.3 63.4 307.3 63.4C304.3 63.4 301.9 65.8 301.9 68.8C301.9 71.8 304.3 74.2 307.3 74.2Z" fill="#333333"/>
<path d="M281.6 74.2C284.6 74.2 287 71.8 287 68.8C287 65.8 284.6 63.4 281.6 63.4C278.6 63.4 276.2 65.8 276.2 68.8C276.1 71.8 278.6 74.2 281.6 74.2Z" fill="#333333"/>
<path d="M148.2 114.3C148.7 113.8 148.9 113 148.9 111.9V103.3H160V111.9C160 112.9 160.2 113.7 160.7 114.3C161.2 114.8 161.8 115.1 162.6 115.1C163.4 115.1 164 114.8 164.5 114.3C165 113.8 165.2 113 165.2 111.9V91.9C165.2 90.8 165 90.1 164.5 89.5C164 89 163.4 88.7 162.6 88.7C161.8 88.7 161.2 89 160.7 89.5C160.2 90 160 90.8 160 91.8V99.1H149V91.8C149 90.7 148.8 90 148.3 89.4C147.8 88.9 147.2 88.6 146.4 88.6C145.6 88.6 145 88.9 144.5 89.4C144 89.9 143.8 90.7 143.8 91.7V111.8C143.8 112.8 144 113.6 144.5 114.2C145 114.7 145.6 115 146.4 115C147.1 115.1 147.8 114.8 148.2 114.3Z" fill="#333333"/>
<path d="M174 114.6H188C188.8 114.6 189.4 114.4 189.8 114C190.2 113.6 190.4 113.1 190.4 112.5C190.4 111.9 190.2 111.4 189.8 111C189.4 110.6 188.8 110.4 188 110.4H176V103.2H186.7C187.5 103.2 188.1 103 188.5 102.7C188.9 102.3 189.1 101.9 189.1 101.3C189.1 100.7 188.9 100.3 188.5 99.9C188.1 99.5 187.5 99.4 186.7 99.4H176V93.1H187.6C188.4 93.1 189 92.9 189.4 92.6C189.8 92.2 190 91.8 190 91.1C190 90.5 189.8 90 189.4 89.7C189 89.4 188.4 89.2 187.6 89.2H174C173.3 89.2 172.7 89.3 172.2 89.5C171.7 89.7 171.4 90.1 171.2 90.5C171 90.9 170.9 91.6 170.9 92.3V111.5C170.9 112.6 171.1 113.4 171.6 113.9C172.1 114.4 172.9 114.6 174 114.6Z" fill="#333333"/>
<path d="M197.6 114.6H210.1C210.9 114.6 211.6 114.4 212 114C212.4 113.6 212.7 113.1 212.7 112.5C212.7 111.9 212.5 111.4 212 111C211.6 110.6 210.9 110.4 210.1 110.4H199.6V91.9C199.6 90.8 199.4 90.1 198.9 89.5C198.4 89 197.8 88.7 197 88.7C196.2 88.7 195.6 89 195.1 89.5C194.6 90 194.4 90.8 194.4 91.8V111.4C194.4 112.5 194.6 113.3 195.1 113.8C195.6 114.3 196.5 114.6 197.6 114.6Z" fill="#333333"/>
<path d="M219.1 114.6H231.6C232.4 114.6 233.1 114.4 233.5 114C233.9 113.6 234.2 113.1 234.2 112.5C234.2 111.9 234 111.4 233.5 111C233 110.6 232.4 110.4 231.6 110.4H221.1V91.9C221.1 90.8 220.9 90.1 220.4 89.5C219.9 89 219.3 88.7 218.5 88.7C217.7 88.7 217.1 89 216.6 89.5C216.1 90 215.9 90.8 215.9 91.8V111.4C215.9 112.5 216.1 113.3 216.6 113.8C217.2 114.4 218 114.6 219.1 114.6Z" fill="#333333"/>
<path d="M237.8 111.4C238.9 112.6 240.2 113.5 241.7 114.1C243.2 114.7 245.1 115.1 247.1 115.1C249.1 115.1 250.9 114.8 252.4 114.2C254 113.6 255.3 112.7 256.3 111.5C257.4 110.3 258.2 108.9 258.7 107.3C259.2 105.7 259.5 103.9 259.5 101.9C259.5 99.2 259 96.9 258 94.9C257 92.9 255.6 91.4 253.7 90.3C251.8 89.2 249.5 88.7 246.9 88.7C245 88.7 243.2 89 241.7 89.6C240.2 90.2 238.9 91.1 237.8 92.2C236.7 93.3 235.9 94.7 235.4 96.4C234.8 98 234.6 99.8 234.6 101.8C234.6 103.7 234.9 105.5 235.4 107.1C235.9 108.7 236.8 110.2 237.8 111.4ZM240.4 98C240.8 96.8 241.3 95.9 241.9 95.2C242.5 94.5 243.3 93.9 244.2 93.5C245.1 93.1 246 92.9 247.1 92.9C248.5 92.9 249.8 93.3 251 94C252.2 94.7 253 95.7 253.6 97.1C254.2 98.5 254.5 100.1 254.5 102C254.5 104 254.2 105.7 253.5 107.1C252.8 108.5 252 109.5 250.9 110.2C249.8 110.9 248.6 111.2 247.3 111.2C246.3 111.2 245.3 111 244.5 110.6C243.6 110.2 242.9 109.6 242.2 108.9C241.5 108.1 241 107.2 240.7 106C240.3 104.8 240.2 103.5 240.2 102.1C239.9 100.4 240 99.1 240.4 98Z" fill="#333333"/>
</svg>
