<svg width="319" height="319" viewBox="0 0 319 319" fill="none" xmlns="http://www.w3.org/2000/svg">
<mask id="mask0_26_79" style="mask-type:alpha" maskUnits="userSpaceOnUse" x="31" y="0" width="256" height="319">
<path d="M41.3725 293.324L31.5115 30.5732C31.1858 21.8956 37.8395 14.5414 46.5063 13.9997L269.994 0.0317105C278.816 -0.519652 286.415 6.18486 286.966 15.0067C286.987 15.339 286.997 15.672 286.997 16.005V302.319C286.997 311.158 279.832 318.323 270.993 318.323C270.753 318.323 270.514 318.318 270.275 318.307L56.6476 308.712C48.3276 308.339 41.6848 301.647 41.3725 293.324Z" fill="white"/>
</mask>
<g mask="url(#mask0_26_79)">
<path d="M41.3725 293.324L31.5115 30.5732C31.1858 21.8956 37.8395 14.5414 46.5063 13.9997L269.994 0.0317105C278.816 -0.519652 286.415 6.18486 286.966 15.0067C286.987 15.339 286.997 15.672 286.997 16.005V302.319C286.997 311.158 279.832 318.323 270.993 318.323C270.753 318.323 270.514 318.318 270.275 318.307L56.6476 308.712C48.3276 308.339 41.6848 301.647 41.3725 293.324Z" fill="#333333"/>
<path d="M220.165 39.127L221.692 2.41149L252.384 0L253.706 37.8634C253.752 39.1811 252.721 40.2867 251.403 40.3327C250.839 40.3524 250.286 40.1715 249.842 39.8221L238.007 30.4984L223.994 41.1282C222.943 41.9251 221.446 41.7195 220.649 40.669C220.313 40.2268 220.142 39.6815 220.165 39.127ZM180.914 119.98C180.914 126.207 222.856 123.223 228.486 118.849C228.486 76.4468 205.734 54.1651 164.071 54.1651C122.409 54.1651 99.0657 76.7935 99.0657 110.736C99.0657 169.852 178.845 170.984 178.845 203.229C178.845 212.281 174.413 217.655 164.662 217.655C151.957 217.655 146.933 211.166 147.524 189.103C147.524 184.317 99.0657 182.825 97.5883 189.103C93.8262 242.569 127.136 257.99 165.253 257.99C202.188 257.99 231.145 238.303 231.145 202.664C231.145 139.304 150.184 141.001 150.184 109.605C150.184 96.8761 159.639 95.179 165.253 95.179C171.163 95.179 181.8 96.2206 180.914 119.98Z" fill="white"/>
</g>
</svg>
