<svg width="512" height="512" viewBox="0 0 512 512" fill="none" xmlns="http://www.w3.org/2000/svg">
<g clip-path="url(#clip0_26_88)">
<path d="M478.33 0H392.819C374.253 0 359.149 15.105 359.149 33.67V119.181C359.149 137.747 374.254 152.851 392.819 152.851H478.33C496.896 152.851 512 137.746 512 119.181V33.67C512 15.105 496.895 0 478.33 0ZM495.967 119.182C495.967 128.907 488.055 136.819 478.33 136.819H392.819C383.094 136.819 375.182 128.907 375.182 119.182V33.67C375.182 23.945 383.094 16.033 392.819 16.033H478.33C488.055 16.033 495.967 23.945 495.967 33.67V119.182V119.182Z" fill="#333333"/>
<path d="M483.998 45.104C480.868 41.973 475.791 41.973 472.661 45.104L427.022 90.743L407.037 70.758C403.906 67.627 398.83 67.627 395.7 70.758C392.569 73.889 392.569 78.965 395.7 82.095L421.353 107.748C422.918 109.313 424.97 110.096 427.021 110.096C429.072 110.096 431.124 109.314 432.689 107.748L483.996 56.441C487.129 53.31 487.129 48.234 483.998 45.104Z" fill="#333333"/>
<path d="M478.33 179.574H392.819C374.253 179.574 359.149 194.679 359.149 213.244V298.755C359.149 317.321 374.254 332.425 392.819 332.425H478.33C496.896 332.425 512 317.32 512 298.755V213.244C512 194.679 496.895 179.574 478.33 179.574ZM495.967 298.756C495.967 308.481 488.055 316.393 478.33 316.393H392.819C383.094 316.393 375.182 308.481 375.182 298.756V213.245C375.182 203.52 383.094 195.608 392.819 195.608H478.33C488.055 195.608 495.967 203.52 495.967 213.245V298.756V298.756Z" fill="#333333"/>
<path d="M478.33 359.148H392.819C374.253 359.148 359.149 374.253 359.149 392.818V478.329C359.149 496.895 374.254 511.999 392.819 511.999H478.33C496.896 511.999 512 496.894 512 478.329V392.818C512 374.253 496.895 359.148 478.33 359.148ZM495.967 478.33C495.967 488.055 488.055 495.967 478.33 495.967H392.819C383.094 495.967 375.182 488.055 375.182 478.33V392.819C375.182 383.094 383.094 375.182 392.819 375.182H478.33C488.055 375.182 495.967 383.094 495.967 392.819V478.33V478.33Z" fill="#333333"/>
<path d="M483.998 404.252C480.868 401.121 475.791 401.121 472.661 404.252L427.022 449.891L407.037 429.906C403.906 426.775 398.83 426.775 395.7 429.906C392.569 433.037 392.569 438.113 395.7 441.243L421.353 466.896C422.918 468.461 424.97 469.244 427.021 469.244C429.072 469.244 431.124 468.462 432.689 466.896L483.996 415.589C487.129 412.458 487.129 407.382 483.998 404.252Z" fill="#333333"/>
<path d="M179.04 42.756H8.017C3.589 42.756 0 46.345 0 50.772C0 55.199 3.589 58.789 8.017 58.789H179.04C183.467 58.789 187.057 55.2 187.057 50.772C187.057 46.344 183.467 42.756 179.04 42.756Z" fill="#333333"/>
<path d="M307.307 42.756H213.244C208.817 42.756 205.227 46.345 205.227 50.773C205.227 55.201 208.816 58.79 213.244 58.79H307.307C311.734 58.79 315.324 55.201 315.324 50.773C315.324 46.345 311.734 42.756 307.307 42.756Z" fill="#333333"/>
<path d="M307.307 94.063H273.102C268.675 94.063 265.085 97.652 265.085 102.08C265.085 106.508 268.674 110.097 273.102 110.097H307.307C311.734 110.097 315.324 106.508 315.324 102.08C315.324 97.652 311.734 94.063 307.307 94.063Z" fill="#333333"/>
<path d="M76.426 94.063H8.017C3.589 94.063 0 97.652 0 102.079C0 106.506 3.589 110.096 8.017 110.096H76.426C80.853 110.096 84.443 106.507 84.443 102.079C84.443 97.651 80.853 94.063 76.426 94.063Z" fill="#333333"/>
<path d="M238.898 94.063H110.63C106.203 94.063 102.613 97.652 102.613 102.08C102.613 106.508 106.202 110.097 110.63 110.097H238.897C243.324 110.097 246.914 106.508 246.914 102.08C246.914 97.652 243.325 94.063 238.898 94.063Z" fill="#333333"/>
<path d="M179.04 222.33H8.017C3.59 222.33 0 225.919 0 230.347C0 234.775 3.589 238.364 8.017 238.364H179.04C183.467 238.364 187.057 234.775 187.057 230.347C187.057 225.919 183.467 222.33 179.04 222.33Z" fill="#333333"/>
<path d="M307.307 222.33H213.244C208.817 222.33 205.227 225.919 205.227 230.347C205.227 234.775 208.816 238.364 213.244 238.364H307.307C311.734 238.364 315.324 234.775 315.324 230.347C315.324 225.919 311.734 222.33 307.307 222.33Z" fill="#333333"/>
<path d="M307.307 273.637H273.102C268.675 273.637 265.085 277.226 265.085 281.654C265.085 286.082 268.674 289.671 273.102 289.671H307.307C311.734 289.671 315.324 286.082 315.324 281.654C315.324 277.226 311.734 273.637 307.307 273.637Z" fill="#333333"/>
<path d="M76.426 273.637H8.017C3.59 273.637 0 277.226 0 281.654C0 286.082 3.589 289.671 8.017 289.671H76.426C80.853 289.671 84.443 286.082 84.443 281.654C84.443 277.226 80.853 273.637 76.426 273.637Z" fill="#333333"/>
<path d="M238.898 273.637H110.63C106.203 273.637 102.613 277.226 102.613 281.654C102.613 286.082 106.202 289.671 110.63 289.671H238.897C243.324 289.671 246.914 286.082 246.914 281.654C246.914 277.226 243.325 273.637 238.898 273.637Z" fill="#333333"/>
<path d="M179.04 401.904H8.017C3.59 401.904 0 405.493 0 409.921C0 414.348 3.589 417.938 8.017 417.938H179.04C183.467 417.938 187.057 414.349 187.057 409.921C187.056 405.493 183.467 401.904 179.04 401.904Z" fill="#333333"/>
<path d="M307.307 401.904H213.244C208.817 401.904 205.227 405.493 205.227 409.921C205.227 414.348 208.816 417.938 213.244 417.938H307.307C311.734 417.938 315.324 414.349 315.324 409.921C315.324 405.493 311.734 401.904 307.307 401.904Z" fill="#333333"/>
<path d="M307.307 453.211H273.102C268.675 453.211 265.085 456.8 265.085 461.228C265.085 465.655 268.674 469.245 273.102 469.245H307.307C311.734 469.245 315.324 465.656 315.324 461.228C315.324 456.8 311.734 453.211 307.307 453.211Z" fill="#333333"/>
<path d="M76.426 453.211H8.017C3.589 453.211 0 456.8 0 461.228C0 465.655 3.589 469.245 8.017 469.245H76.426C80.853 469.245 84.443 465.656 84.443 461.228C84.443 456.8 80.853 453.211 76.426 453.211Z" fill="#333333"/>
<path d="M238.898 453.211H110.63C106.203 453.211 102.613 456.8 102.613 461.228C102.613 465.655 106.202 469.245 110.63 469.245H238.897C243.324 469.245 246.914 465.656 246.914 461.228C246.914 456.8 243.325 453.211 238.898 453.211Z" fill="#333333"/>
<path d="M466.896 275.985L446.911 256L466.896 236.015C470.027 232.885 470.027 227.808 466.896 224.678C463.765 221.547 458.689 221.547 455.559 224.678L435.574 244.663L415.589 224.678C412.458 221.547 407.382 221.547 404.252 224.678C401.121 227.809 401.121 232.885 404.252 236.015L424.237 256L404.252 275.985C401.121 279.116 401.121 284.192 404.252 287.322C405.817 288.887 407.869 289.67 409.92 289.67C411.971 289.67 414.023 288.888 415.588 287.322L435.573 267.337L455.558 287.322C457.123 288.887 459.175 289.67 461.226 289.67C463.277 289.67 465.329 288.888 466.894 287.322C470.027 284.191 470.027 279.115 466.896 275.985Z" fill="#333333"/>
</g>
<defs>
<clipPath id="clip0_26_88">
<rect width="512" height="512" fill="white"/>
</clipPath>
</defs>
</svg>
